<svg width="31" height="31" viewBox="0 0 31 31" fill="none" xmlns="http://www.w3.org/2000/svg">
<path d="M24.5039 23.9309C29.3914 19.0434 29.3914 11.1309 24.5039 6.25586" stroke="white" stroke-width="1.5" stroke-linecap="round" stroke-linejoin="round"/>
<path d="M6.82773 6.25586C1.94023 11.1434 1.94023 19.0559 6.82773 23.9309" stroke="white" stroke-width="1.5" stroke-linecap="round" stroke-linejoin="round"/>
<path d="M11.541 26.8564C12.8785 27.3189 14.266 27.544 15.666 27.544C17.066 27.5315 18.4535 27.3189 19.791 26.8564" stroke="white" stroke-width="1.5" stroke-linecap="round" stroke-linejoin="round"/>
<path d="M11.541 3.33112C12.8785 2.86862 14.266 2.64355 15.666 2.64355C17.066 2.64355 18.4535 2.86862 19.791 3.33112" stroke="white" stroke-width="1.5" stroke-linecap="round" stroke-linejoin="round"/>
<path d="M11.5918 15.0939V13.0064C11.5918 10.4064 13.4293 9.34393 15.6793 10.6439L17.4918 11.694L19.3043 12.7439C21.5543 14.0439 21.5543 16.169 19.3043 17.469L17.4918 18.5189L15.6793 19.5689C13.4293 20.8689 11.5918 19.8064 11.5918 17.2064V15.0939Z" stroke="white" stroke-width="1.5" stroke-miterlimit="10" stroke-linecap="round" stroke-linejoin="round"/>
</svg>
