<svg width="61" height="61" viewBox="0 0 61 61" fill="none" xmlns="http://www.w3.org/2000/svg">
<path d="M0.666504 30.7661C0.666504 14.1976 14.098 0.766113 30.6665 0.766113C47.235 0.766113 60.6665 14.1976 60.6665 30.7661C60.6665 47.3347 47.235 60.7661 30.6665 60.7661C14.098 60.7661 0.666504 47.3347 0.666504 30.7661Z" fill="#FFEA00"/>
<path fill-rule="evenodd" clip-rule="evenodd" d="M24.121 22.7661C37.212 22.7661 37.212 22.7661 37.212 22.7661C38.0154 22.7661 38.6665 23.4173 38.6665 24.2207C38.6665 37.3114 38.6665 37.3111 38.6665 37.3111C38.6665 38.1145 38.0154 38.7656 37.212 38.7656C36.4086 38.7656 35.7574 38.1145 35.7574 37.3111C35.7574 27.7319 35.7574 27.732 35.7574 27.732L25.0803 38.4091L23.0235 36.3523L33.7006 25.6752H24.121C23.3177 25.6752 22.6665 25.024 22.6665 24.2207C22.6665 23.4173 23.3177 22.7661 24.121 22.7661Z" fill="#0E0E0E"/>
</svg>
