<svg width="13" height="13" viewBox="0 0 13 13" fill="none" xmlns="http://www.w3.org/2000/svg">
<g id="SVG">
<path id="Vector" d="M11.1148 5.7677C11.2794 5.54414 11.4094 5.36507 11.5058 5.22989C12.1996 4.25943 12.5 3.6396 12.4081 3.36925L12.3717 3.30571C12.348 3.26816 12.2856 3.23292 12.1857 3.20173C12.0852 3.16996 11.957 3.16476 11.8004 3.18555L10.0681 3.19826C10.0282 3.19422 9.98771 3.19537 9.94785 3.20173C9.90744 3.20808 9.88144 3.21444 9.86931 3.22021C9.85773 3.22714 9.84796 3.23234 9.8393 3.23639L9.81559 3.25545C9.79535 3.26758 9.77345 3.29011 9.74974 3.32188C9.72492 3.35307 9.70523 3.39005 9.68908 3.43279C9.50074 3.94287 9.28585 4.4177 9.0456 4.85615C8.89711 5.11783 8.76076 5.34485 8.63662 5.53663C8.51239 5.72899 8.40786 5.86994 8.3235 5.96063C8.23976 6.05133 8.16347 6.12412 8.09531 6.17899C8.02657 6.23387 7.97458 6.25697 7.93876 6.24889C7.90295 6.24022 7.86829 6.23214 7.83652 6.2229C7.78049 6.18534 7.73543 6.13393 7.70135 6.06808C7.66669 6.00338 7.64416 5.92077 7.63203 5.82142C7.6199 5.72264 7.61296 5.63657 7.61066 5.56494C7.60892 5.49331 7.61008 5.39222 7.61412 5.26109C7.61816 5.13054 7.6199 5.04216 7.6199 4.99537C7.6199 4.83535 7.62279 4.6609 7.62914 4.47316C7.63492 4.286 7.64012 4.13696 7.64416 4.02721C7.64821 3.91803 7.64994 3.80134 7.64994 3.67946C7.64994 3.55699 7.64301 3.4611 7.62914 3.3912C7.6147 3.32188 7.5939 3.2543 7.5656 3.18902C7.5373 3.12375 7.49628 3.07291 7.44256 3.0371C7.38825 3.00128 7.32067 2.9724 7.24095 2.9516C7.02838 2.90077 6.75745 2.87362 6.42876 2.869C5.68301 2.86091 5.20355 2.91174 4.99154 3.02092C4.90721 3.06771 4.83096 3.13125 4.76279 3.21097C4.69058 3.30398 4.68018 3.35481 4.73217 3.3629C4.97364 3.40102 5.14347 3.49171 5.24398 3.63497L5.2798 3.71065C5.3081 3.76611 5.33583 3.86315 5.36413 4.00236C5.39186 4.141 5.41035 4.29524 5.41844 4.46392C5.43865 4.77239 5.43865 5.0358 5.41844 5.25531C5.39822 5.47424 5.37973 5.64523 5.36125 5.7677C5.34276 5.88958 5.31619 5.98894 5.28037 6.06461C5.24398 6.14145 5.21972 6.18765 5.20759 6.20441C5.19546 6.22116 5.18563 6.23156 5.17755 6.23618C5.12556 6.25697 5.07126 6.26737 5.01523 6.26737C4.9592 6.26737 4.89103 6.23791 4.81074 6.17841C4.73044 6.12007 4.64725 6.03862 4.56119 5.93522C4.47512 5.83182 4.37749 5.6874 4.26947 5.5014C4.16145 5.31597 4.0488 5.09645 3.93269 4.84344L3.83622 4.65974C3.77673 4.5419 3.69412 4.37034 3.59014 4.14447C3.48559 3.91861 3.39316 3.70025 3.31344 3.4894C3.28109 3.40102 3.23257 3.33344 3.16903 3.28665L3.13841 3.26758C3.11877 3.25083 3.08642 3.23292 3.04252 3.21444C2.99861 3.1948 2.95241 3.18151 2.90388 3.17285L1.25582 3.18555C1.08714 3.18555 0.973339 3.22599 0.912685 3.30571L0.889001 3.34383C0.87687 3.36521 0.871094 3.39871 0.871094 3.44492C0.871094 3.49171 0.883225 3.54833 0.907486 3.61591C1.14779 4.2109 1.40947 4.78452 1.69195 5.33734C1.975 5.88958 2.22051 6.33496 2.42904 6.67231C2.63758 7.01024 2.84958 7.32853 3.06678 7.62834C3.2834 7.92815 3.42667 8.11935 3.49656 8.20369C3.56704 8.28861 3.62191 8.35157 3.66177 8.39374L3.81254 8.54625C3.90843 8.64733 4.04995 8.76864 4.23654 8.90959C4.42255 9.05112 4.62935 9.19033 4.85637 9.32724C5.08224 9.46472 5.34623 9.57621 5.64719 9.66286C5.94757 9.7495 6.24045 9.78416 6.52523 9.76742H7.21669C7.35764 9.7547 7.46393 9.7085 7.53556 9.6282L7.55982 9.59643C7.576 9.57159 7.59101 9.53231 7.60487 9.47974C7.61874 9.4266 7.62625 9.36883 7.62625 9.30586C7.62221 9.12448 7.63492 8.96043 7.66495 8.81486C7.69557 8.66929 7.72907 8.56011 7.7672 8.48559C7.80532 8.41222 7.84865 8.34984 7.89717 8.29901C7.94512 8.24817 7.97862 8.21813 7.99942 8.20773C8.01906 8.19734 8.03523 8.18983 8.04737 8.1852C8.14325 8.1517 8.25646 8.18405 8.38707 8.28341C8.51759 8.38276 8.64008 8.50465 8.75383 8.65022C8.8682 8.79637 9.00574 8.95927 9.16628 9.14066C9.32634 9.32262 9.46671 9.45722 9.58684 9.54617L9.70759 9.62185C9.78731 9.67268 9.89184 9.71889 10.0206 9.76106C10.1483 9.80323 10.261 9.81421 10.3575 9.79283L11.8974 9.76742C12.0494 9.76742 12.1678 9.74084 12.2522 9.68828C12.3359 9.63571 12.3861 9.57737 12.4024 9.5144C12.4185 9.45086 12.4191 9.37981 12.4052 9.29893C12.3913 9.21921 12.3769 9.16319 12.3636 9.13199C12.3492 9.10022 12.3359 9.07365 12.3238 9.05227C12.1239 8.67333 11.7404 8.20658 11.1748 7.65433L11.1627 7.64163L11.1569 7.63469L11.1512 7.62892H11.1448C10.8883 7.37128 10.726 7.19856 10.6578 7.1096C10.5336 6.9415 10.5053 6.76994 10.5741 6.59722C10.6214 6.46609 10.8017 6.18939 11.1148 5.7677Z" fill="#0E0E0E"/>
</g>
</svg>
